<?xml version="1.0" encoding="UTF-8"?>
<!DOCTYPE svg PUBLIC "-//W3C//DTD SVG 1.1//EN" "http://www.w3.org/Graphics/SVG/1.1/DTD/svg11.dtd">
<svg xmlns="http://www.w3.org/2000/svg" version="1.1" width="512px" height="512px" style="shape-rendering:geometricPrecision; text-rendering:geometricPrecision; image-rendering:optimizeQuality; fill-rule:evenodd; clip-rule:evenodd" xmlns:xlink="http://www.w3.org/1999/xlink">
<g><path style="opacity:0.876" fill="#000000" d="M 332.5,25.5 C 334.177,28.092 335.343,31.092 336,34.5C 337.691,31.8693 338.858,32.2027 339.5,35.5C 340.281,34.2713 340.781,32.938 341,31.5C 341.741,30.3595 342.575,30.3595 343.5,31.5C 345.775,43.5229 347.108,56.0229 347.5,69C 346.573,101.158 346.24,133.325 346.5,165.5C 388.559,163.889 430.559,164.222 472.5,166.5C 472.452,169.292 473.785,171.125 476.5,172C 473.032,174.738 473.366,177.405 477.5,180C 476.672,180.915 475.672,181.581 474.5,182C 475.833,182.667 475.833,183.333 474.5,184C 471.167,184.333 467.833,184.667 464.5,185C 466.715,185.17 468.715,185.837 470.5,187C 467.437,187.574 464.771,188.908 462.5,191C 460.765,191.651 459.098,191.485 457.5,190.5C 457.264,191.247 456.93,192.08 456.5,193C 419.81,193.05 383.143,193.884 346.5,195.5C 347.338,239.471 348.338,283.471 349.5,327.5C 374.891,327.223 400.224,327.89 425.5,329.5C 426.716,328.998 427.883,328.665 429,328.5C 439.099,329.817 449.266,330.984 459.5,332C 463.42,334.074 467.087,336.574 470.5,339.5C 469.271,340.281 467.938,340.781 466.5,341C 472.954,343.072 472.954,344.739 466.5,346C 467.981,346.98 469.315,348.147 470.5,349.5C 469.167,350.5 467.833,351.5 466.5,352.5C 463.729,353.217 461.063,353.551 458.5,353.5C 460.423,354.308 462.423,354.808 464.5,355C 465.711,355.893 465.711,356.726 464.5,357.5C 461.891,356.77 459.224,356.27 456.5,356C 455.167,355.333 455.167,354.667 456.5,354C 455.552,353.517 454.552,353.351 453.5,353.5C 453.5,354.5 453.5,355.5 453.5,356.5C 452.448,356.351 451.448,356.517 450.5,357C 451.759,357.923 453.092,358.757 454.5,359.5C 453.333,359.833 452.167,360.167 451,360.5C 442.875,359.26 434.709,358.426 426.5,358C 401.16,357.167 375.827,356.333 350.5,355.5C 352.06,390.485 352.56,425.485 352,460.5C 351.683,462.301 351.016,462.634 350,461.5C 349.559,465.048 348.059,468.048 345.5,470.5C 344.719,469.271 344.219,467.938 344,466.5C 343.691,467.766 343.191,468.933 342.5,470C 342.833,470.333 343.167,470.667 343.5,471C 341.697,471.637 340.364,472.803 339.5,474.5C 337.412,470.822 336.245,466.822 336,462.5C 335.794,465.623 335.127,468.623 334,471.5C 333,469.833 332,468.167 331,466.5C 330.333,467.167 329.667,467.833 329,468.5C 327.899,466.606 326.566,465.939 325,466.5C 324.747,463.21 323.747,460.21 322,457.5C 321.672,423.466 320.505,389.466 318.5,355.5C 277.846,354.553 237.179,354.22 196.5,354.5C 196.814,384.021 196.48,413.521 195.5,443C 196.436,451.286 197.102,459.452 197.5,467.5C 196.06,471.893 194.56,476.226 193,480.5C 191.883,479.051 191.216,477.384 191,475.5C 189.413,476.727 188.079,476.394 187,474.5C 185.561,476.275 184.561,478.275 184,480.5C 183.51,479.207 183.343,477.873 183.5,476.5C 182.5,476.5 181.5,476.5 180.5,476.5C 180.66,474.801 180.494,473.134 180,471.5C 179.828,476.202 179.328,480.868 178.5,485.5C 177.804,482.444 176.97,479.444 176,476.5C 174.309,479.131 173.142,478.797 172.5,475.5C 171.813,477.274 170.98,478.941 170,480.5C 167.684,479.478 167.184,477.978 168.5,476C 167.257,474.13 166.59,471.964 166.5,469.5C 165.64,460.347 164.973,451.18 164.5,442C 165.419,412.842 165.752,383.675 165.5,354.5C 128.17,353.9 90.8362,353.4 53.5,353C 53.0698,352.08 52.7365,351.247 52.5,350.5C 50.9017,351.485 49.235,351.651 47.5,351C 45.2292,348.908 42.5625,347.574 39.5,347C 41.2852,345.837 43.2852,345.17 45.5,345C 42.1667,344.667 38.8333,344.333 35.5,344C 34.1667,343.333 34.1667,342.667 35.5,342C 34.3279,341.581 33.3279,340.915 32.5,340C 36.6342,337.405 36.9675,334.738 33.5,332C 36.2146,331.125 37.5479,329.292 37.5,326.5C 80.1074,324.235 122.774,323.902 165.5,325.5C 164.86,282.16 163.86,238.827 162.5,195.5C 136.169,196.283 109.836,197.117 83.5,198C 75.2914,198.426 67.1247,199.26 59,200.5C 57.8333,200.167 56.6667,199.833 55.5,199.5C 56.9079,198.757 58.2412,197.923 59.5,197C 58.552,196.517 57.552,196.351 56.5,196.5C 56.5,195.5 56.5,194.5 56.5,193.5C 55.448,193.351 54.448,193.517 53.5,194C 54.8333,194.667 54.8333,195.333 53.5,196C 50.7759,196.27 48.1092,196.77 45.5,197.5C 44.2888,196.726 44.2888,195.893 45.5,195C 47.5767,194.808 49.5767,194.308 51.5,193.5C 50.0047,192.888 48.3381,192.888 46.5,193.5C 43.9293,192.599 41.596,191.266 39.5,189.5C 40.6853,188.147 42.0186,186.98 43.5,186C 37.0457,184.739 37.0457,183.072 43.5,181C 42.062,180.781 40.7287,180.281 39.5,179.5C 42.913,176.574 46.5797,174.074 50.5,172C 60.734,170.984 70.9007,169.817 81,168.5C 82.1169,168.665 83.2836,168.998 84.5,169.5C 110.109,167.882 135.776,167.215 161.5,167.5C 160.134,128.509 159.634,89.5094 160,50.5C 160.317,48.6992 160.984,48.3659 162,49.5C 162.441,45.9522 163.941,42.9522 166.5,40.5C 167.281,41.7287 167.781,43.062 168,44.5C 168.309,43.2341 168.809,42.0674 169.5,41C 169.167,40.6667 168.833,40.3333 168.5,40C 170.303,39.3632 171.636,38.1965 172.5,36.5C 174.588,40.1777 175.755,44.1777 176,48.5C 176.206,45.3771 176.873,42.3771 178,39.5C 179,41.1667 180,42.8333 181,44.5C 181.667,43.8333 182.333,43.1667 183,42.5C 184.101,44.3939 185.434,45.0606 187,44.5C 187.253,47.7896 188.253,50.7896 190,53.5C 190.621,91.1861 191.787,128.853 193.5,166.5C 233.835,166.667 274.168,166.5 314.5,166C 315.181,133.386 315.847,100.719 316.5,68C 315.564,59.7143 314.898,51.5476 314.5,43.5C 315.94,39.1073 317.44,34.774 319,30.5C 320.117,31.9494 320.784,33.6161 321,35.5C 322.587,34.273 323.921,34.6063 325,36.5C 326.439,34.7254 327.439,32.7254 328,30.5C 328.49,31.7932 328.657,33.1266 328.5,34.5C 329.5,34.5 330.5,34.5 331.5,34.5C 331.34,36.1992 331.506,37.8659 332,39.5C 332.499,34.8452 332.666,30.1785 332.5,25.5 Z M 215.5,65.5 C 217.167,66.5 218.5,67.8333 219.5,69.5C 217.167,69.1667 215.833,67.8333 215.5,65.5 Z M 212.5,161.5 C 212.511,158.999 213.178,158.832 214.5,161C 213.906,161.464 213.239,161.631 212.5,161.5 Z M 291.5,161.5 C 292.497,160.287 293.497,160.454 294.5,162C 293.423,162.47 292.423,162.303 291.5,161.5 Z M 296.5,161.5 C 297.833,161.5 298.5,162.167 298.5,163.5C 297.5,163.167 296.833,162.5 296.5,161.5 Z M 45.5,190.5 C 47.337,190.639 47.6704,191.306 46.5,192.5C 45.7025,192.043 45.3691,191.376 45.5,190.5 Z M 200.5,194.5 C 238.833,194.5 277.167,194.5 315.5,194.5C 316.075,238.498 317.075,282.498 318.5,326.5C 277.833,326.5 237.167,326.5 196.5,326.5C 196.079,282.814 195.079,239.148 193.5,195.5C 196.059,195.802 198.393,195.468 200.5,194.5 Z M 228.5,237.5 C 229.758,238.016 230.758,237.35 231.5,235.5C 235.778,233.023 240.112,230.523 244.5,228C 245.337,226.989 245.67,225.822 245.5,224.5C 257.104,221.449 268.438,222.282 279.5,227C 288.881,235.485 292.047,245.985 289,258.5C 284.86,271.974 276.026,280.807 262.5,285C 250.126,288.165 238.46,286.499 227.5,280C 218.313,271.058 216.147,260.558 221,248.5C 222.582,244.106 225.082,240.439 228.5,237.5 Z M 462.5,350.5 C 464.337,350.639 464.67,351.306 463.5,352.5C 462.702,352.043 462.369,351.376 462.5,350.5 Z M 229.5,390.5 C 230.758,391.016 231.758,390.35 232.5,388.5C 236.778,386.023 241.112,383.523 245.5,381C 246.337,379.989 246.67,378.822 246.5,377.5C 258.104,374.449 269.438,375.282 280.5,380C 289.881,388.485 293.047,398.985 290,411.5C 285.86,424.974 277.026,433.807 263.5,438C 251.126,441.165 239.46,439.499 228.5,433C 219.313,424.058 217.147,413.558 222,401.5C 223.582,397.106 226.082,393.439 229.5,390.5 Z"/></g>
<g><path style="opacity:0.012" fill="#000000" d="M 86.5,55.5 C 88.2884,54.3775 90.2884,54.2109 92.5,55C 90.5273,55.4955 88.5273,55.6621 86.5,55.5 Z"/></g>
<g><path style="opacity:1" fill="#02eb90" d="M 298.5,66.5 C 297.167,66.8333 297.167,67.1667 298.5,67.5C 288.375,80.4592 277.041,92.2926 264.5,103C 276.291,117.793 288.457,132.293 301,146.5C 301.93,148.936 303.097,151.269 304.5,153.5C 304.5,155.5 304.5,157.5 304.5,159.5C 303.975,160.192 303.308,160.692 302.5,161C 303.34,162.666 302.84,162.833 301,161.5C 300.583,162.756 299.75,163.423 298.5,163.5C 294.626,164.453 290.959,163.62 287.5,161C 276.42,146.333 264.753,132.167 252.5,118.5C 240.421,132.543 229.421,146.376 219.5,160C 218.551,160.617 217.718,160.451 217,159.5C 216.044,160.579 215.211,161.745 214.5,163C 212.052,163.853 211.386,163.353 212.5,161.5C 211.504,161.586 210.671,161.252 210,160.5C 205.172,165.837 204.672,165.504 208.5,159.5C 207.386,158.224 206.386,158.224 205.5,159.5C 204.883,159.611 204.383,159.944 204,160.5C 201.296,157.168 201.296,153.502 204,149.5C 216.738,134.598 228.904,119.265 240.5,103.5C 235.933,96.428 230.433,90.0947 224,84.5C 222.121,82.4732 220.954,80.1398 220.5,77.5C 218.022,76.8051 216.022,75.3051 214.5,73C 218.98,72.7074 219.313,71.874 215.5,70.5C 214.684,68.7127 213.684,67.0461 212.5,65.5C 213.425,64.4376 214.425,64.4376 215.5,65.5C 214.854,63.8439 214.187,62.1772 213.5,60.5C 214.856,58.7305 216.356,57.0638 218,55.5C 219.333,56.1667 220.333,57.1667 221,58.5C 221.414,58.0426 221.914,57.7093 222.5,57.5C 224.336,58.919 226.336,60.0857 228.5,61C 237.258,70.034 245.425,79.534 253,89.5C 263.234,79.936 272.734,69.7693 281.5,59C 285.449,59.2311 289.282,59.0644 293,58.5C 296.166,59.1669 299,60.5002 301.5,62.5C 300.476,63.8518 299.476,65.1851 298.5,66.5 Z M 215.5,65.5 C 217.167,66.5 218.5,67.8333 219.5,69.5C 217.167,69.1667 215.833,67.8333 215.5,65.5 Z M 212.5,161.5 C 213.239,161.631 213.906,161.464 214.5,161C 213.178,158.832 212.511,158.999 212.5,161.5 Z M 291.5,161.5 C 292.423,162.303 293.423,162.47 294.5,162C 293.497,160.454 292.497,160.287 291.5,161.5 Z M 296.5,161.5 C 297.833,161.5 298.5,162.167 298.5,163.5C 297.5,163.167 296.833,162.5 296.5,161.5 Z"/></g>
<g><path style="opacity:0.879" fill="#cb0000" d="M 138.5,142.5 C 138.167,141.167 137.833,141.167 137.5,142.5C 136.833,142.5 136.5,142.833 136.5,143.5C 135.167,143.833 135.167,144.167 136.5,144.5C 121.661,156.626 104.661,160.792 85.5,157C 67.2843,152.45 56.1177,140.95 52,122.5C 48.7782,107.354 51.9449,93.8539 61.5,82C 60.5494,81.2825 60.3828,80.4491 61,79.5C 69.6281,72.4334 79.1281,66.7667 89.5,62.5C 100.344,62.4129 111.344,62.5796 122.5,63C 144.616,68.6081 155.616,82.7747 155.5,105.5C 155.828,111.687 154.995,117.687 153,123.5C 148.687,130.303 143.853,136.636 138.5,142.5 Z M 76.5,86.5 C 77.7582,87.0164 78.7582,86.3497 79.5,84.5C 83.7785,82.0235 88.1118,79.5235 92.5,77C 93.3366,75.9887 93.67,74.8221 93.5,73.5C 105.104,70.4486 116.438,71.282 127.5,76C 136.881,84.4852 140.047,94.9852 137,107.5C 132.86,120.974 124.026,129.807 110.5,134C 98.1264,137.165 86.4597,135.499 75.5,129C 66.3132,120.058 64.1466,109.558 69,97.5C 70.5818,93.106 73.0818,89.4393 76.5,86.5 Z"/></g>
<g><path style="opacity:0.879" fill="#cb0000" d="M 444.5,142.5 C 444.167,141.167 443.833,141.167 443.5,142.5C 442.833,142.5 442.5,142.833 442.5,143.5C 441.167,143.833 441.167,144.167 442.5,144.5C 427.661,156.626 410.661,160.792 391.5,157C 373.284,152.45 362.118,140.95 358,122.5C 354.778,107.354 357.945,93.8539 367.5,82C 366.549,81.2825 366.383,80.4491 367,79.5C 375.628,72.4334 385.128,66.7667 395.5,62.5C 406.344,62.4129 417.344,62.5796 428.5,63C 450.616,68.6081 461.616,82.7747 461.5,105.5C 461.828,111.687 460.995,117.687 459,123.5C 454.687,130.303 449.853,136.636 444.5,142.5 Z M 382.5,86.5 C 383.758,87.0164 384.758,86.3497 385.5,84.5C 389.778,82.0235 394.112,79.5235 398.5,77C 399.337,75.9887 399.67,74.8221 399.5,73.5C 411.104,70.4486 422.438,71.282 433.5,76C 442.881,84.4852 446.047,94.9852 443,107.5C 438.86,120.974 430.026,129.807 416.5,134C 404.126,137.165 392.46,135.499 381.5,129C 372.313,120.058 370.147,109.558 375,97.5C 376.582,93.106 379.082,89.4393 382.5,86.5 Z"/></g>
<g><path style="opacity:1" fill="#02eb90" d="M 298.5,66.5 C 299.833,67.1667 299.833,67.1667 298.5,66.5 Z"/></g>
<g><path style="opacity:0.016" fill="#cb0000" d="M 137.5,142.5 C 137.833,142.5 138.167,142.5 138.5,142.5C 138.315,143.17 137.981,143.17 137.5,142.5 Z"/></g>
<g><path style="opacity:0.016" fill="#cb0000" d="M 443.5,142.5 C 443.833,142.5 444.167,142.5 444.5,142.5C 444.315,143.17 443.981,143.17 443.5,142.5 Z"/></g>
<g><path style="opacity:0.031" fill="#cb0000" d="M 136.5,143.5 C 136.833,143.5 137.167,143.5 137.5,143.5C 137.315,144.17 136.981,144.17 136.5,143.5 Z"/></g>
<g><path style="opacity:0.031" fill="#cb0000" d="M 442.5,143.5 C 442.833,143.5 443.167,143.5 443.5,143.5C 443.315,144.17 442.981,144.17 442.5,143.5 Z"/></g>
<g><path style="opacity:1" fill="#02eb90" d="M 205.5,159.5 C 206.833,160.167 206.833,160.167 205.5,159.5 Z"/></g>
<g><path style="opacity:0.014" fill="#000000" d="M 475.5,166.5 C 477.983,166.73 478.483,167.397 477,168.5C 475.97,168.164 475.47,167.497 475.5,166.5 Z"/></g>
<g><path style="opacity:0.014" fill="#000000" d="M 471.5,185.5 C 472.675,185.281 473.675,185.614 474.5,186.5C 472.948,187.798 471.948,187.465 471.5,185.5 Z"/></g>
<g><path style="opacity:1" fill="#02eb90" d="M 151.5,217.5 C 150.167,217.833 150.167,218.167 151.5,218.5C 141.375,231.459 130.041,243.293 117.5,254C 129.291,268.793 141.457,283.293 154,297.5C 154.93,299.936 156.097,302.269 157.5,304.5C 157.5,306.5 157.5,308.5 157.5,310.5C 156.975,311.192 156.308,311.692 155.5,312C 156.34,313.666 155.84,313.833 154,312.5C 153.583,313.756 152.75,314.423 151.5,314.5C 147.626,315.453 143.959,314.62 140.5,312C 129.42,297.333 117.753,283.167 105.5,269.5C 93.421,283.543 82.421,297.376 72.5,311C 71.5509,311.617 70.7175,311.451 70,310.5C 69.044,311.579 68.2106,312.745 67.5,314C 65.0524,314.853 64.3857,314.353 65.5,312.5C 64.5041,312.586 63.6708,312.252 63,311.5C 58.1719,316.837 57.6719,316.504 61.5,310.5C 60.3864,309.224 59.3864,309.224 58.5,310.5C 57.8826,310.611 57.3826,310.944 57,311.5C 54.2956,308.168 54.2956,304.502 57,300.5C 69.7375,285.598 81.9042,270.265 93.5,254.5C 88.9333,247.428 83.4333,241.095 77,235.5C 75.1207,233.473 73.954,231.14 73.5,228.5C 71.0219,227.805 69.0219,226.305 67.5,224C 71.9799,223.707 72.3133,222.874 68.5,221.5C 67.684,219.713 66.684,218.046 65.5,216.5C 66.4246,215.438 67.4246,215.438 68.5,216.5C 67.8535,214.844 67.1869,213.177 66.5,211.5C 67.8564,209.73 69.3564,208.064 71,206.5C 72.3333,207.167 73.3333,208.167 74,209.5C 74.414,209.043 74.914,208.709 75.5,208.5C 77.3359,209.919 79.3359,211.086 81.5,212C 90.2582,221.034 98.4249,230.534 106,240.5C 116.234,230.936 125.734,220.769 134.5,210C 138.449,210.231 142.282,210.064 146,209.5C 149.166,210.167 152,211.5 154.5,213.5C 153.476,214.852 152.476,216.185 151.5,217.5 Z M 68.5,216.5 C 70.1667,217.5 71.5,218.833 72.5,220.5C 70.1667,220.167 68.8333,218.833 68.5,216.5 Z M 65.5,312.5 C 65.5109,309.999 66.1776,309.832 67.5,312C 66.9056,312.464 66.2389,312.631 65.5,312.5 Z M 144.5,312.5 C 145.497,311.287 146.497,311.454 147.5,313C 146.423,313.47 145.423,313.303 144.5,312.5 Z M 149.5,312.5 C 150.833,312.5 151.5,313.167 151.5,314.5C 150.5,314.167 149.833,313.5 149.5,312.5 Z"/></g>
<g><path style="opacity:0.879" fill="#cb0000" d="M 290.5,293.5 C 290.565,293.062 290.399,292.728 290,292.5C 289.167,293.333 288.333,294.167 287.5,295C 287.728,295.399 288.062,295.565 288.5,295.5C 273.661,307.626 256.661,311.792 237.5,308C 219.284,303.45 208.118,291.95 204,273.5C 200.791,258.198 203.958,244.531 213.5,232.5C 212.475,232.103 212.308,231.437 213,230.5C 221.628,223.433 231.128,217.767 241.5,213.5C 252.344,213.413 263.344,213.58 274.5,214C 296.616,219.608 307.616,233.775 307.5,256.5C 307.828,262.687 306.995,268.687 305,274.5C 300.687,281.303 295.853,287.636 290.5,293.5 Z M 228.5,237.5 C 229.758,238.016 230.758,237.35 231.5,235.5C 235.778,233.023 240.112,230.523 244.5,228C 245.337,226.989 245.67,225.822 245.5,224.5C 257.104,221.449 268.438,222.282 279.5,227C 288.881,235.485 292.047,245.985 289,258.5C 284.86,271.974 276.026,280.807 262.5,285C 250.126,288.165 238.46,286.499 227.5,280C 218.313,271.058 216.147,260.558 221,248.5C 222.582,244.106 225.082,240.439 228.5,237.5 Z"/></g>
<g><path style="opacity:0.879" fill="#cb0000" d="M 444.5,293.5 C 444.167,292.167 443.833,292.167 443.5,293.5C 442.833,293.5 442.5,293.833 442.5,294.5C 441.167,294.833 441.167,295.167 442.5,295.5C 427.661,307.626 410.661,311.792 391.5,308C 373.284,303.45 362.118,291.95 358,273.5C 354.778,258.354 357.945,244.854 367.5,233C 366.549,232.282 366.383,231.449 367,230.5C 375.628,223.433 385.128,217.767 395.5,213.5C 406.344,213.413 417.344,213.58 428.5,214C 450.616,219.608 461.616,233.775 461.5,256.5C 461.828,262.687 460.995,268.687 459,274.5C 454.687,281.303 449.853,287.636 444.5,293.5 Z M 382.5,237.5 C 383.758,238.016 384.758,237.35 385.5,235.5C 389.778,233.023 394.112,230.523 398.5,228C 399.337,226.989 399.67,225.822 399.5,224.5C 411.104,221.449 422.438,222.282 433.5,227C 442.881,235.485 446.047,245.985 443,258.5C 438.86,271.974 430.026,280.807 416.5,285C 404.126,288.165 392.46,286.499 381.5,280C 372.313,271.058 370.147,260.558 375,248.5C 376.582,244.106 379.082,240.439 382.5,237.5 Z"/></g>
<g><path style="opacity:1" fill="#02eb90" d="M 151.5,217.5 C 152.833,218.167 152.833,218.167 151.5,217.5 Z"/></g>
<g><path style="opacity:0.016" fill="#cb0000" d="M 443.5,293.5 C 443.833,293.5 444.167,293.5 444.5,293.5C 444.315,294.17 443.981,294.17 443.5,293.5 Z"/></g>
<g><path style="opacity:0.031" fill="#cb0000" d="M 442.5,294.5 C 442.833,294.5 443.167,294.5 443.5,294.5C 443.315,295.17 442.981,295.17 442.5,294.5 Z"/></g>
<g><path style="opacity:1" fill="#02eb90" d="M 58.5,310.5 C 59.8333,311.167 59.8333,311.167 58.5,310.5 Z"/></g>
<g><path style="opacity:0.014" fill="#000000" d="M 32.5,326.5 C 33.3764,326.369 34.0431,326.702 34.5,327.5C 32.1916,328.873 31.5249,328.54 32.5,326.5 Z"/></g>
<g><path style="opacity:0.014" fill="#000000" d="M 35.5,345.5 C 36.675,345.281 37.675,345.614 38.5,346.5C 36.9483,347.798 35.9483,347.465 35.5,345.5 Z"/></g>
<g><path style="opacity:1" fill="#02eb90" d="M 150.5,371.5 C 149.167,371.833 149.167,372.167 150.5,372.5C 140.375,385.459 129.041,397.293 116.5,408C 128.291,422.793 140.457,437.293 153,451.5C 153.93,453.936 155.097,456.269 156.5,458.5C 156.5,460.5 156.5,462.5 156.5,464.5C 155.975,465.192 155.308,465.692 154.5,466C 155.34,467.666 154.84,467.833 153,466.5C 152.583,467.756 151.75,468.423 150.5,468.5C 146.626,469.453 142.959,468.62 139.5,466C 128.42,451.333 116.753,437.167 104.5,423.5C 92.421,437.543 81.421,451.376 71.5,465C 70.5509,465.617 69.7175,465.451 69,464.5C 68.044,465.579 67.2106,466.745 66.5,468C 64.0524,468.853 63.3857,468.353 64.5,466.5C 63.5041,466.586 62.6708,466.252 62,465.5C 57.1719,470.837 56.6719,470.504 60.5,464.5C 59.3864,463.224 58.3864,463.224 57.5,464.5C 56.8826,464.611 56.3826,464.944 56,465.5C 53.2956,462.168 53.2956,458.502 56,454.5C 68.7375,439.598 80.9042,424.265 92.5,408.5C 87.9333,401.428 82.4333,395.095 76,389.5C 74.1207,387.473 72.954,385.14 72.5,382.5C 70.0219,381.805 68.0219,380.305 66.5,378C 70.9799,377.707 71.3133,376.874 67.5,375.5C 66.684,373.713 65.684,372.046 64.5,370.5C 65.4246,369.438 66.4246,369.438 67.5,370.5C 66.8535,368.844 66.1869,367.177 65.5,365.5C 66.8564,363.73 68.3564,362.064 70,360.5C 71.3333,361.167 72.3333,362.167 73,363.5C 73.414,363.043 73.914,362.709 74.5,362.5C 76.3359,363.919 78.3359,365.086 80.5,366C 89.2582,375.034 97.4249,384.534 105,394.5C 115.234,384.936 124.734,374.769 133.5,364C 137.449,364.231 141.282,364.064 145,363.5C 148.166,364.167 151,365.5 153.5,367.5C 152.476,368.852 151.476,370.185 150.5,371.5 Z M 67.5,370.5 C 69.1667,371.5 70.5,372.833 71.5,374.5C 69.1667,374.167 67.8333,372.833 67.5,370.5 Z M 64.5,466.5 C 64.5109,463.999 65.1776,463.832 66.5,466C 65.9056,466.464 65.2389,466.631 64.5,466.5 Z M 143.5,466.5 C 144.497,465.287 145.497,465.454 146.5,467C 145.423,467.47 144.423,467.303 143.5,466.5 Z M 148.5,466.5 C 149.833,466.5 150.5,467.167 150.5,468.5C 149.5,468.167 148.833,467.5 148.5,466.5 Z"/></g>
<g><path style="opacity:1" fill="#02eb90" d="M 459.5,371.5 C 458.167,371.833 458.167,372.167 459.5,372.5C 449.375,385.459 438.041,397.293 425.5,408C 437.291,422.793 449.457,437.293 462,451.5C 462.93,453.936 464.097,456.269 465.5,458.5C 465.5,460.5 465.5,462.5 465.5,464.5C 464.975,465.192 464.308,465.692 463.5,466C 464.34,467.666 463.84,467.833 462,466.5C 461.583,467.756 460.75,468.423 459.5,468.5C 455.626,469.453 451.959,468.62 448.5,466C 437.42,451.333 425.753,437.167 413.5,423.5C 401.421,437.543 390.421,451.376 380.5,465C 379.551,465.617 378.718,465.451 378,464.5C 377.044,465.579 376.211,466.745 375.5,468C 373.052,468.853 372.386,468.353 373.5,466.5C 372.504,466.586 371.671,466.252 371,465.5C 366.172,470.837 365.672,470.504 369.5,464.5C 368.386,463.224 367.386,463.224 366.5,464.5C 365.883,464.611 365.383,464.944 365,465.5C 362.296,462.168 362.296,458.502 365,454.5C 377.738,439.598 389.904,424.265 401.5,408.5C 396.933,401.428 391.433,395.095 385,389.5C 383.121,387.473 381.954,385.14 381.5,382.5C 379.022,381.805 377.022,380.305 375.5,378C 379.98,377.707 380.313,376.874 376.5,375.5C 375.684,373.713 374.684,372.046 373.5,370.5C 374.425,369.438 375.425,369.438 376.5,370.5C 375.854,368.844 375.187,367.177 374.5,365.5C 375.856,363.73 377.356,362.064 379,360.5C 380.333,361.167 381.333,362.167 382,363.5C 382.414,363.043 382.914,362.709 383.5,362.5C 385.336,363.919 387.336,365.086 389.5,366C 398.258,375.034 406.425,384.534 414,394.5C 424.234,384.936 433.734,374.769 442.5,364C 446.449,364.231 450.282,364.064 454,363.5C 457.166,364.167 460,365.5 462.5,367.5C 461.476,368.852 460.476,370.185 459.5,371.5 Z M 376.5,370.5 C 378.167,371.5 379.5,372.833 380.5,374.5C 378.167,374.167 376.833,372.833 376.5,370.5 Z M 373.5,466.5 C 373.511,463.999 374.178,463.832 375.5,466C 374.906,466.464 374.239,466.631 373.5,466.5 Z M 452.5,466.5 C 453.497,465.287 454.497,465.454 455.5,467C 454.423,467.47 453.423,467.303 452.5,466.5 Z M 457.5,466.5 C 458.833,466.5 459.5,467.167 459.5,468.5C 458.5,468.167 457.833,467.5 457.5,466.5 Z"/></g>
<g><path style="opacity:0.879" fill="#cb0000" d="M 291.5,446.5 C 291.167,445.167 290.833,445.167 290.5,446.5C 289.833,446.5 289.5,446.833 289.5,447.5C 288.167,447.833 288.167,448.167 289.5,448.5C 274.661,460.626 257.661,464.792 238.5,461C 220.284,456.45 209.118,444.95 205,426.5C 201.778,411.354 204.945,397.854 214.5,386C 213.549,385.282 213.383,384.449 214,383.5C 222.628,376.433 232.128,370.767 242.5,366.5C 253.344,366.413 264.344,366.58 275.5,367C 297.616,372.608 308.616,386.775 308.5,409.5C 308.828,415.687 307.995,421.687 306,427.5C 301.687,434.303 296.853,440.636 291.5,446.5 Z M 229.5,390.5 C 230.758,391.016 231.758,390.35 232.5,388.5C 236.778,386.023 241.112,383.523 245.5,381C 246.337,379.989 246.67,378.822 246.5,377.5C 258.104,374.449 269.438,375.282 280.5,380C 289.881,388.485 293.047,398.985 290,411.5C 285.86,424.974 277.026,433.807 263.5,438C 251.126,441.165 239.46,439.499 228.5,433C 219.313,424.058 217.147,413.558 222,401.5C 223.582,397.106 226.082,393.439 229.5,390.5 Z"/></g>
<g><path style="opacity:1" fill="#02eb90" d="M 150.5,371.5 C 151.833,372.167 151.833,372.167 150.5,371.5 Z"/></g>
<g><path style="opacity:1" fill="#02eb90" d="M 459.5,371.5 C 460.833,372.167 460.833,372.167 459.5,371.5 Z"/></g>
<g><path style="opacity:0.016" fill="#cb0000" d="M 290.5,446.5 C 290.833,446.5 291.167,446.5 291.5,446.5C 291.315,447.17 290.981,447.17 290.5,446.5 Z"/></g>
<g><path style="opacity:0.031" fill="#cb0000" d="M 289.5,447.5 C 289.833,447.5 290.167,447.5 290.5,447.5C 290.315,448.17 289.981,448.17 289.5,447.5 Z"/></g>
<g><path style="opacity:0.012" fill="#000000" d="M 419.5,456.5 C 421.288,455.378 423.288,455.211 425.5,456C 423.527,456.495 421.527,456.662 419.5,456.5 Z"/></g>
<g><path style="opacity:1" fill="#02eb90" d="M 57.5,464.5 C 58.8333,465.167 58.8333,465.167 57.5,464.5 Z"/></g>
<g><path style="opacity:1" fill="#02eb90" d="M 366.5,464.5 C 367.833,465.167 367.833,465.167 366.5,464.5 Z"/></g>
</svg>
